{
  "asset": {
    "version": "2.0",
    "generator": "THREE.GLTFExporter"
  },
  "scenes": [
    {
      "nodes": [
        0
      ]
    }
  ],
  "scene": 0,
  "nodes": [
    {
      "children": [
        16
      ],
      "matrix": [
        0.01,
        0,
        0,
        0,
        0,
        0.01,
        0,
        0,
        0,
        0,
        0.01,
        0,
        0,
        0,
        0,
        1
      ]
    },
    {
      "matrix": [
        0.8220547751934779,
        -2.8883756358899504e-8,
        -0.5694084180810816,
        0,
        -0.14028021958648815,
        0.9691780390437421,
        -0.2025225632567725,
        0,
        0.5518581399004342,
        0.24636137813246198,
        0.7967174309567394,
        0,
        628.3440799806898,
        278.19377798666744,
        927.0714867561423,
        1
      ],
      "name": "Camera",
      "camera": 0
    },
    {
      "matrix": [
        0.8737640008258106,
        0.33325114732909783,
        -0.35423176546536966,
        0,
        0.3563582486639487,
        -0.9343493985705579,
        0,
        0,
        -0.33097623701715506,
        -0.12623341156237777,
        -0.9351576638916496,
        0,
        0,
        0,
        0,
        1
      ],
      "name": "Directional Light Blue 2",
      "extensions": {
        "KHR_lights_punctual": {
          "light": 0
        }
      }
    },
    {
      "matrix": [
        0.7146086411398066,
        -0.45314617723610745,
        -0.5329099661899949,
        0,
        0.5355249338653816,
        0.8445194167149022,
        0,
        0,
        0.4500528138083327,
        -0.28538657440009974,
        0.8461719493905353,
        0,
        0,
        0,
        0,
        1
      ],
      "name": "Directional Light Blue",
      "extensions": {
        "KHR_lights_punctual": {
          "light": 1
        }
      }
    },
    {
      "matrix": [
        1.0205921488655019,
        0,
        0.03349526975327956,
        0,
        0,
        1.0000000305787367,
        0,
        0,
        -0.03351693709613224,
        0,
        1.0212523471611146,
        0,
        3.187663027529055,
        41.427285507516686,
        -3.9376025075272096,
        1
      ],
      "name": "male_tshirt",
      "mesh": 0
    },
    {
      "name": "manga-izq",
      "children": [
        4
      ]
    },
    {
      "matrix": [
        1.0205921488655019,
        0,
        0.03349526975327956,
        0,
        0,
        1.0000000305787367,
        0,
        0,
        -0.03351693709613224,
        0,
        1.0212523471611146,
        0,
        3.187663027529055,
        41.427285507516686,
        -3.9376025075272096,
        1
      ],
      "name": "male_tshirt",
      "mesh": 1
    },
    {
      "name": "manga-der",
      "children": [
        6
      ]
    },
    {
      "matrix": [
        1.0205921488655019,
        0,
        0.03349526975327956,
        0,
        0,
        1.0000000305787367,
        0,
        0,
        -0.03351693709613224,
        0,
        1.0212523471611146,
        0,
        3.187663027529055,
        41.427285507516686,
        -3.9376025075272096,
        1
      ],
      "name": "male_tshirt",
      "mesh": 2
    },
    {
      "name": "torso",
      "children": [
        8
      ]
    },
    {
      "matrix": [
        1.0205921488655019,
        0,
        0.03349526975327956,
        0,
        0,
        1.0000000305787367,
        0,
        0,
        -0.03351693709613224,
        0,
        1.0212523471611146,
        0,
        3.187663027529055,
        41.427285507516686,
        -3.9376025075272096,
        1
      ],
      "name": "male_tshirt",
      "mesh": 3
    },
    {
      "name": "cuello-der",
      "children": [
        10
      ]
    },
    {
      "matrix": [
        1.0205921488655019,
        0,
        0.03349526975327956,
        0,
        0,
        1.0000000305787367,
        0,
        0,
        -0.03351693709613224,
        0,
        1.0212523471611146,
        0,
        3.187663027529055,
        41.427285507516686,
        -3.9376025075272096,
        1
      ],
      "name": "male_tshirt",
      "mesh": 4
    },
    {
      "name": "cuello-izq",
      "children": [
        12
      ]
    },
    {
      "matrix": [
        0.9647128532591243,
        -1.3877787807814457e-17,
        -0.2633042171265767,
        0,
        -0.08531716068569922,
        0.9460485032501073,
        -0.3125911252591193,
        0,
        0.24909856051203916,
        0.32402504455401565,
        0.9126651508919348,
        0,
        235.550680104823,
        413.46476011141084,
        992.058681143574,
        1
      ],
      "name": "Personal Camera",
      "camera": 1
    },
    {
      "matrix": [
        1,
        0,
        0,
        0,
        0,
        1,
        0,
        0,
        0,
        0,
        1,
        0,
        0,
        1,
        0,
        1
      ],
      "name": "Default Ambient Light"
    },
    {
      "name": "Scene",
      "children": [
        1,
        2,
        3,
        5,
        7,
        9,
        11,
        13,
        14,
        15
      ]
    }
  ],
  "cameras": [
    {
      "type": "orthographic",
      "orthographic": {
        "xmag": 5.113213461095756,
        "ymag": 2.368004594687789,
        "zfar": 100000,
        "znear": 0
      },
      "name": "Camera"
    },
    {
      "type": "orthographic",
      "orthographic": {
        "xmag": 12.872681631776567,
        "ymag": 5.961528788486689,
        "zfar": 100000,
        "znear": 0
      },
      "name": "Camera"
    }
  ],
  "extensions": {
    "KHR_lights_punctual": {
      "lights": [
        {
          "name": "Directional Light Blue 2",
          "color": [
            1,
            1,
            1
          ],
          "intensity": 10,
          "type": "directional"
        },
        {
          "name": "Directional Light Blue",
          "color": [
            1,
            1,
            1
          ],
          "intensity": 10,
          "type": "directional"
        }
      ]
    }
  },
  "bufferViews": [
    {
      "buffer": 0,
      "byteOffset": 0,
      "byteLength": 111360,
      "target": 34962,
      "byteStride": 12
    },
    {
      "buffer": 0,
      "byteOffset": 111360,
      "byteLength": 111360,
      "target": 34962,
      "byteStride": 12
    },
    {
      "buffer": 0,
      "byteOffset": 222720,
      "byteLength": 55680,
      "target": 34963
    },
    {
      "buffer": 0,
      "byteOffset": 278400,
      "byteLength": 93696,
      "target": 34962,
      "byteStride": 12
    },
    {
      "buffer": 0,
      "byteOffset": 372096,
      "byteLength": 93696,
      "target": 34962,
      "byteStride": 12
    },
    {
      "buffer": 0,
      "byteOffset": 465792,
      "byteLength": 46848,
      "target": 34963
    },
    {
      "buffer": 0,
      "byteOffset": 512640,
      "byteLength": 463104,
      "target": 34962,
      "byteStride": 12
    },
    {
      "buffer": 0,
      "byteOffset": 975744,
      "byteLength": 463104,
      "target": 34962,
      "byteStride": 12
    },
    {
      "buffer": 0,
      "byteOffset": 1438848,
      "byteLength": 231552,
      "target": 34963
    },
    {
      "buffer": 0,
      "byteOffset": 1670400,
      "byteLength": 49152,
      "target": 34962,
      "byteStride": 12
    },
    {
      "buffer": 0,
      "byteOffset": 1719552,
      "byteLength": 49152,
      "target": 34962,
      "byteStride": 12
    },
    {
      "buffer": 0,
      "byteOffset": 1768704,
      "byteLength": 24576,
      "target": 34963
    },
    {
      "buffer": 0,
      "byteOffset": 1793280,
      "byteLength": 41472,
      "target": 34962,
      "byteStride": 12
    },
    {
      "buffer": 0,
      "byteOffset": 1834752,
      "byteLength": 41472,
      "target": 34962,
      "byteStride": 12
    },
    {
      "buffer": 0,
      "byteOffset": 1876224,
      "byteLength": 20736,
      "target": 34963
    }
  ],
  "buffers": [
    {
      "byteLength": 1896960,
      "uri": "data:application/octet-stream;base64,"
    }
  ],
  "accessors": [
    {
      "bufferView": 0,
      "componentType": 5126,
      "count": 9280,
      "max": [
        -131.80181884765625,
        157.72756958007812,
        64.58409881591797
      ],
      "min": [
        -234.49232482910156,
        -17.570816040039062,
        -64.595703125
      ],
      "type": "VEC3"
    },
    {
      "bufferView": 1,
      "componentType": 5126,
      "count": 9280,
      "max": [
        0.9045223593711853,
        0.8391647338867188,
        0.9999753832817078
      ],
      "min": [
        -0.9981197714805603,
        -0.9985214471817017,
        -0.9992157816886902
      ],
      "type": "VEC3"
    },
    {
      "bufferView": 2,
      "componentType": 5125,
      "count": 13920,
      "max": [
        9279
      ],
      "min": [
        0
      ],
      "type": "SCALAR"
    },
    {
      "bufferView": 3,
      "componentType": 5126,
      "count": 7808,
      "max": [
        230.26763916015625,
        156.54913330078125,
        50.02898406982422
      ],
      "min": [
        126.69241333007812,
        -10.325496673583984,
        -74.25216674804688
      ],
      "type": "VEC3"
    },
    {
      "bufferView": 4,
      "componentType": 5126,
      "count": 7808,
      "max": [
        0.9984190464019775,
        0.9068015217781067,
        0.9983181953430176
      ],
      "min": [
        -0.9932363629341125,
        -0.9993429183959961,
        -0.9998526573181152
      ],
      "type": "VEC3"
    },
    {
      "bufferView": 5,
      "componentType": 5125,
      "count": 11712,
      "max": [
        7807
      ],
      "min": [
        0
      ],
      "type": "SCALAR"
    },
    {
      "bufferView": 6,
      "componentType": 5126,
      "count": 38592,
      "max": [
        154.70733642578125,
        196.63702392578125,
        112.670654296875
      ],
      "min": [
        -167.25796508789062,
        -289.6026611328125,
        -101.48898315429688
      ],
      "type": "VEC3"
    },
    {
      "bufferView": 7,
      "componentType": 5126,
      "count": 38592,
      "max": [
        0.9998049139976501,
        0.9986878037452698,
        0.9999517798423767
      ],
      "min": [
        -0.9999966621398926,
        -0.9993638396263123,
        -0.9998509287834167
      ],
      "type": "VEC3"
    },
    {
      "bufferView": 8,
      "componentType": 5125,
      "count": 57888,
      "max": [
        38591
      ],
      "min": [
        0
      ],
      "type": "SCALAR"
    },
    {
      "bufferView": 9,
      "componentType": 5126,
      "count": 4096,
      "max": [
        72.80738830566406,
        206.6396484375,
        59.342185974121094
      ],
      "min": [
        -19.142292022705078,
        137.0799560546875,
        -58.272926330566406
      ],
      "type": "VEC3"
    },
    {
      "bufferView": 10,
      "componentType": 5126,
      "count": 4096,
      "max": [
        0.9990770220756531,
        0.9995450973510742,
        0.9956744909286499
      ],
      "min": [
        -0.9985339641571045,
        -0.7829310894012451,
        -0.9983355402946472
      ],
      "type": "VEC3"
    },
    {
      "bufferView": 11,
      "componentType": 5125,
      "count": 6144,
      "max": [
        4095
      ],
      "min": [
        0
      ],
      "type": "SCALAR"
    },
    {
      "bufferView": 12,
      "componentType": 5126,
      "count": 3456,
      "max": [
        1.029890775680542,
        206.3631134033203,
        59.342185974121094
      ],
      "min": [
        -77.45100402832031,
        137.07333374023438,
        -58.23212432861328
      ],
      "type": "VEC3"
    },
    {
      "bufferView": 13,
      "componentType": 5126,
      "count": 3456,
      "max": [
        0.9897341132164001,
        0.999971866607666,
        0.9905852675437927
      ],
      "min": [
        -0.9931229948997498,
        -0.9271059632301331,
        -0.9856526255607605
      ],
      "type": "VEC3"
    },
    {
      "bufferView": 14,
      "componentType": 5125,
      "count": 5184,
      "max": [
        3455
      ],
      "min": [
        0
      ],
      "type": "SCALAR"
    }
  ],
  "meshes": [
    {
      "primitives": [
        {
          "mode": 4,
          "attributes": {
            "POSITION": 0,
            "NORMAL": 1
          },
          "extras": {
            "type": "SubdivGeometry",
            "parameters": {
              "width": 108.92584228515625,
              "height": 181.34327697753906,
              "depth": 139.9775390625
            }
          },
          "indices": 2
        }
      ]
    },
    {
      "primitives": [
        {
          "mode": 4,
          "attributes": {
            "POSITION": 3,
            "NORMAL": 4
          },
          "extras": {
            "type": "SubdivGeometry",
            "parameters": {
              "width": 109.37106323242188,
              "height": 173.20276546478271,
              "depth": 134.70421600341797
            }
          },
          "indices": 5
        }
      ]
    },
    {
      "primitives": [
        {
          "mode": 4,
          "attributes": {
            "POSITION": 6,
            "NORMAL": 7
          },
          "extras": {
            "type": "SubdivGeometry",
            "parameters": {
              "width": 326.6292266845703,
              "height": 488.54290771484375,
              "depth": 220.1989288330078
            }
          },
          "indices": 8
        }
      ]
    },
    {
      "primitives": [
        {
          "mode": 4,
          "attributes": {
            "POSITION": 9,
            "NORMAL": 10
          },
          "extras": {
            "type": "SubdivGeometry",
            "parameters": {
              "width": 92.51308250427246,
              "height": 71.60501098632812,
              "depth": 118.00837707519531
            }
          },
          "indices": 11
        }
      ]
    },
    {
      "primitives": [
        {
          "mode": 4,
          "attributes": {
            "POSITION": 12,
            "NORMAL": 13
          },
          "extras": {
            "type": "SubdivGeometry",
            "parameters": {
              "width": 78.60819935798645,
              "height": 70.32212829589844,
              "depth": 117.7894515991211
            }
          },
          "indices": 14
        }
      ]
    }
  ],
  "extensionsUsed": [
    "KHR_lights_punctual"
  ]
}